adventprofmm-ThinItalic.ufo
<glyph name="ampersand" format="1">
  <advance width="527"/>
  <unicode hex="0026"/>
  <outline>
    <contour>
      <point x="536.751" y="681" type="line"/>
      <point x="381.751" y="681" type="line" smooth="yes"/>
      <point x="342.751" y="681"/>
      <point x="278.737" y="648"/>
      <point x="238.621" y="591"/>
      <point x="231.756" y="554" type="qcurve" smooth="yes"/>
      <point x="224.104" y="518"/>
      <point x="245.201" y="462"/>
      <point x="288.911" y="423"/>
      <point x="338.66" y="403"/>
      <point x="359.66" y="403" type="qcurve" smooth="yes"/>
      <point x="466.66" y="403" type="line"/>
      <point x="488.341" y="505" type="line"/>
      <point x="504.341" y="505" type="line"/>
      <point x="482.66" y="403" type="line"/>
      <point x="581.66" y="403" type="line"/>
      <point x="568.197" y="382" type="line"/>
      <point x="478.197" y="382" type="line"/>
      <point x="425.908" y="136" type="line" smooth="yes"/>
      <point x="414.217" y="81"/>
      <point x="447.526" y="26"/>
      <point x="492.913" y="9" type="qcurve"/>
      <point x="484.087" y="-9" type="line"/>
      <point x="438.063" y="5"/>
      <point x="399.966" y="61"/>
      <point x="403.318" y="105" type="qcurve"/>
      <point x="383.666" y="69"/>
      <point x="322.676" y="22"/>
      <point x="253.575" y="-2"/>
      <point x="222.15" y="-4" type="qcurve" smooth="yes"/>
      <point x="194.725" y="-6"/>
      <point x="129.425" y="2"/>
      <point x="75.2269" y="34"/>
      <point x="50.6808" y="102"/>
      <point x="63.2216" y="161" type="qcurve" smooth="yes"/>
      <point x="82.9894" y="254" type="line" smooth="yes"/>
      <point x="88.0907" y="278"/>
      <point x="110.144" y="330"/>
      <point x="150.709" y="375"/>
      <point x="217.66" y="403"/>
      <point x="268.66" y="403" type="qcurve" smooth="yes"/>
      <point x="286.66" y="403" type="line"/>
      <point x="254.274" y="420"/>
      <point x="216.476" y="468"/>
      <point x="203.592" y="525"/>
      <point x="208.544" y="553" type="qcurve" smooth="yes"/>
      <point x="216.684" y="596"/>
      <point x="262.925" y="663"/>
      <point x="336.215" y="702"/>
      <point x="382.215" y="702" type="qcurve" smooth="yes"/>
      <point x="551.215" y="702" type="line"/>
    </contour>
    <contour>
      <point x="462.197" y="382" type="line"/>
      <point x="262.197" y="382" type="line" smooth="yes"/>
      <point x="211.197" y="382"/>
      <point x="145.97" y="348"/>
      <point x="109.429" y="289"/>
      <point x="101.352" y="251" type="qcurve" smooth="yes"/>
      <point x="81.7965" y="159" type="line" smooth="yes"/>
      <point x="63.9417" y="75"/>
      <point x="145.488" y="7"/>
      <point x="225.763" y="13" type="qcurve" smooth="yes"/>
      <point x="274.613" y="17"/>
      <point x="355.178" y="62"/>
      <point x="409.057" y="132"/>
      <point x="417.772" y="173" type="qcurve" smooth="yes"/>
    </contour>
  </outline>
</glyph>
<glyph name="quotesingle" format="1">
  <advance width="87"/>
  <unicode hex="0027"/>
  <outline>
    <contour>
      <point x="181.466" y="722" type="line" smooth="yes"/>
      <point x="182.954" y="729"/>
      <point x="193.442" y="736"/>
      <point x="204.442" y="736"/>
      <point x="211.954" y="729"/>
      <point x="210.466" y="722" type="qcurve" smooth="yes"/>
      <point x="174.771" y="587" type="line"/>
      <point x="158.771" y="587" type="line"/>
    </contour>
  </outline>
</glyph>
<glyph name="parenright" format="1">
  <advance width="171"/>
  <unicode hex="0029"/>
  <outline>
    <contour>
      <point x="198.808" y="813" type="line"/>
      <point x="230.92" y="790"/>
      <point x="265.292" y="740"/>
      <point x="272.263" y="674"/>
      <point x="261.848" y="625" type="qcurve" smooth="yes"/>
      <point x="143.666" y="69" type="line" smooth="yes"/>
      <point x="135.802" y="32"/>
      <point x="113.111" y="-23"/>
      <point x="79.1838" y="-65"/>
      <point x="32.5318" y="-101"/>
      <point x="0.705772" y="-119" type="qcurve"/>
      <point x="-6.46821" y="-101" type="line"/>
      <point x="6.23224" y="-93"/>
      <point x="42.9085" y="-71"/>
      <point x="81.5605" y="-35"/>
      <point x="114.676" y="22"/>
      <point x="123.816" y="65" type="qcurve" smooth="yes"/>
      <point x="133.169" y="109"/>
      <point x="163.989" y="254"/>
      <point x="210.964" y="475"/>
      <point x="244.973" y="635" type="qcurve" smooth="yes"/>
      <point x="252.413" y="670"/>
      <point x="248.828" y="719"/>
      <point x="232.48" y="755"/>
      <point x="203.432" y="783"/>
      <point x="185.62" y="798" type="qcurve"/>
    </contour>
  </outline>
</glyph>
<glyph name="hyphen" format="1">
  <advance width="390"/>
  <unicode hex="002D"/>
  <outline>
    <contour>
      <point x="116.552" y="393" type="line"/>
      <point x="120.804" y="413" type="line"/>
      <point x="439.804" y="413" type="line"/>
      <point x="435.552" y="393" type="line"/>
    </contour>
  </outline>
</glyph>
<glyph name="five" format="1">
  <advance width="439"/>
  <unicode hex="0035"/>
  <outline>
    <contour>
      <point x="167.361" y="411" type="line"/>
      <point x="261.786" y="413" type="line"/>
      <point x="343.786" y="413"/>
      <point x="435.67" y="356"/>
      <point x="465.84" y="258"/>
      <point x="453.086" y="198" type="qcurve" smooth="yes"/>
      <point x="443.309" y="152"/>
      <point x="393.942" y="75"/>
      <point x="324.039" y="19"/>
      <point x="241.449" y="-12"/>
      <point x="198.449" y="-12" type="qcurve" smooth="yes"/>
      <point x="162.449" y="-12"/>
      <point x="103.85" y="4"/>
      <point x="60.5265" y="26"/>
      <point x="36.9274" y="42"/>
      <point x="36.9274" y="42" type="qcurve"/>
      <point x="48.5408" y="59" type="line"/>
      <point x="48.5408" y="59"/>
      <point x="88.0144" y="33"/>
      <point x="157.488" y="7"/>
      <point x="201.488" y="7" type="qcurve" smooth="yes"/>
      <point x="249.488" y="7"/>
      <point x="347.053" y="52"/>
      <point x="421.333" y="138"/>
      <point x="434.299" y="199" type="qcurve" smooth="yes"/>
      <point x="444.714" y="248"/>
      <point x="420.632" y="337"/>
      <point x="337.535" y="393"/>
      <point x="258.535" y="393" type="qcurve" smooth="yes"/>
      <point x="142.535" y="393" type="line"/>
      <point x="239.364" y="698" type="line"/>
      <point x="504.364" y="698" type="line"/>
      <point x="500.113" y="678" type="line"/>
      <point x="252.113" y="678" type="line"/>
    </contour>
  </outline>
</glyph>
<glyph name="eight" format="1">
  <advance width="468"/>
  <unicode hex="0038"/>
  <outline>
    <contour>
      <point x="384.277" y="707" type="qcurve" smooth="yes"/>
      <point x="458.277" y="707"/>
      <point x="493.862" y="658" type="qcurve" smooth="yes"/>
      <point x="512.548" y="633"/>
      <point x="522.582" y="572"/>
      <point x="514.93" y="536" type="qcurve" smooth="yes"/>
      <point x="503.877" y="484"/>
      <point x="461.525" y="440" type="qcurve" smooth="yes"/>
      <point x="443.699" y="422"/>
      <point x="397.535" y="393"/>
      <point x="370.834" y="385" type="qcurve"/>
      <point x="402.921" y="376"/>
      <point x="449.057" y="339"/>
      <point x="463.893" y="310" type="qcurve" smooth="yes"/>
      <point x="477.941" y="282"/>
      <point x="486.188" y="222"/>
      <point x="479.598" y="191" type="qcurve" smooth="yes"/>
      <point x="470.458" y="148"/>
      <point x="424.942" y="75"/>
      <point x="389.778" y="46" type="qcurve" smooth="yes"/>
      <point x="319.449" y="-12"/>
      <point x="231.449" y="-12" type="qcurve" smooth="yes"/>
      <point x="141.449" y="-12"/>
      <point x="94.7776" y="46" type="qcurve" smooth="yes"/>
      <point x="71.9418" y="75"/>
      <point x="57.4584" y="148"/>
      <point x="66.5983" y="191" type="qcurve" smooth="yes"/>
      <point x="73.4001" y="223"/>
      <point x="107.366" y="284"/>
      <point x="134.105" y="311" type="qcurve" smooth="yes"/>
      <point x="160.057" y="339"/>
      <point x="225.921" y="376"/>
      <point x="256.834" y="385" type="qcurve"/>
      <point x="214.235" y="401"/>
      <point x="191.375" y="444" type="qcurve"/>
      <point x="182.264" y="467"/>
      <point x="176.042" y="513"/>
      <point x="180.93" y="536" type="qcurve" smooth="yes"/>
      <point x="196.234" y="608"/>
      <point x="253.862" y="658" type="qcurve" smooth="yes"/>
      <point x="312.278" y="707"/>
    </contour>
    <contour>
      <point x="317.11" y="391" type="qcurve" smooth="yes"/>
      <point x="354.11" y="391"/>
      <point x="424.124" y="424"/>
      <point x="449.863" y="451" type="qcurve" smooth="yes"/>
      <point x="467.902" y="470"/>
      <point x="491.254" y="514"/>
      <point x="496.568" y="539" type="qcurve" smooth="yes"/>
      <point x="505.283" y="580"/>
      <point x="479.524" y="647"/>
      <point x="421.026" y="687"/>
      <point x="380.026" y="687" type="qcurve" smooth="yes"/>
      <point x="339.026" y="687"/>
      <point x="262.524" y="647"/>
      <point x="208.283" y="580"/>
      <point x="199.568" y="539" type="qcurve" smooth="yes"/>
      <point x="188.728" y="488"/>
      <point x="212.225" y="448" type="qcurve" smooth="yes"/>
      <point x="227.911" y="423"/>
      <point x="281.11" y="391"/>
    </contour>
    <contour>
      <point x="234.063" y="5" type="qcurve" smooth="yes"/>
      <point x="286.063" y="5"/>
      <point x="380.691" y="55"/>
      <point x="449.545" y="139"/>
      <point x="460.173" y="189" type="qcurve" smooth="yes"/>
      <point x="466.975" y="221"/>
      <point x="458.666" y="276"/>
      <point x="445.554" y="299" type="qcurve" smooth="yes"/>
      <point x="427.781" y="333"/>
      <point x="358.284" y="373"/>
      <point x="312.284" y="373" type="qcurve" smooth="yes"/>
      <point x="268.284" y="373"/>
      <point x="184.419" y="336"/>
      <point x="151.83" y="305" type="qcurve" smooth="yes"/>
      <point x="127.941" y="282"/>
      <point x="93.1876" y="222"/>
      <point x="86.1732" y="189" type="qcurve" smooth="yes"/>
      <point x="75.5454" y="139"/>
      <point x="107.691" y="55"/>
      <point x="182.063" y="5"/>
    </contour>
  </outline>
</glyph>
<glyph name="C" format="1">
  <advance width="420"/>
  <unicode hex="0043"/>
    <anchor name="bottom" x="210" y="0"/>
    <anchor name="top" x="366.229" y="735"/>
  <outline>
    <contour>
      <point x="501.862" y="658" type="line"/>
      <point x="470.263" y="674"/>
      <point x="408.451" y="689"/>
      <point x="377.451" y="689" type="qcurve" smooth="yes"/>
      <point x="290.451" y="689"/>
      <point x="179.471" y="595"/>
      <point x="161.829" y="512" type="qcurve" smooth="yes"/>
      <point x="92.323" y="185" type="line"/>
      <point x="77.5068" y="120"/>
      <point x="108.927" y="42"/>
      <point x="185.7" y="8"/>
      <point x="238.7" y="8" type="qcurve" smooth="yes"/>
      <point x="258.7" y="8"/>
      <point x="308.188" y="15"/>
      <point x="366.377" y="30"/>
      <point x="397.715" y="41" type="qcurve"/>
      <point x="399.889" y="23" type="line"/>
      <point x="307.874" y="-10"/>
      <point x="230.874" y="-10" type="qcurve" smooth="yes"/>
      <point x="215.874" y="-10"/>
      <point x="151.15" y="-4"/>
      <point x="119.188" y="15" type="qcurve" smooth="yes"/>
      <point x="85.652" y="36"/>
      <point x="59.5068" y="120"/>
      <point x="72.8979" y="183" type="qcurve" smooth="yes"/>
      <point x="142.829" y="512" type="line" smooth="yes"/>
      <point x="158.771" y="587"/>
      <point x="232.051" y="673"/>
      <point x="328.49" y="708"/>
      <point x="378.49" y="708" type="qcurve" smooth="yes"/>
      <point x="459.49" y="708"/>
      <point x="513.476" y="675" type="qcurve"/>
    </contour>
    <contour>
      <point x="210" y="0" type="move" name="bottom"/>
    </contour>
    <contour>
      <point x="366.229" y="735" type="move" name="top"/>
    </contour>
  </outline>
</glyph>
<glyph name="D" format="1">
  <advance width="494"/>
  <unicode hex="0044"/>
    <anchor name="top" x="403.229" y="735"/>
  <outline>
    <contour>
      <point x="377.364" y="698" type="line" smooth="yes"/>
      <point x="490.364" y="698"/>
      <point x="582.22" y="575"/>
      <point x="560.539" y="473" type="qcurve" smooth="yes"/>
      <point x="502.299" y="199" type="line" smooth="yes"/>
      <point x="481.256" y="100"/>
      <point x="355" y="0"/>
      <point x="249" y="0" type="qcurve" smooth="yes"/>
      <point x="41" y="0" type="line"/>
      <point x="189.364" y="698" type="line"/>
    </contour>
    <contour>
      <point x="243.251" y="20" type="line" smooth="yes"/>
      <point x="307.251" y="20"/>
      <point x="404.478" y="54"/>
      <point x="470.333" y="138"/>
      <point x="486.275" y="213" type="qcurve" smooth="yes"/>
      <point x="540.051" y="466" type="line" smooth="yes"/>
      <point x="553.442" y="529"/>
      <point x="528.848" y="625"/>
      <point x="451.113" y="678"/>
      <point x="383.113" y="678" type="qcurve" smooth="yes"/>
      <point x="204.113" y="678" type="line"/>
      <point x="64.2511" y="20" type="line"/>
    </contour>
    <contour>
      <point x="403.229" y="735" type="move" name="top"/>
    </contour>
  </outline>
</glyph>
<glyph name="J" format="1">
  <advance width="177"/>
  <unicode hex="004A"/>
    <anchor name="top" x="244.229" y="735"/>
  <outline>
    <contour>
      <point x="161.932" y="122" type="line" smooth="yes"/>
      <point x="154.067" y="85"/>
      <point x="131.589" y="31"/>
      <point x="115.551" y="12" type="qcurve" smooth="yes"/>
      <point x="98.2995" y="-8"/>
      <point x="54.1982" y="-32"/>
      <point x="24.1354" y="-37" type="qcurve"/>
      <point x="21.9614" y="-19" type="line"/>
      <point x="68.4493" y="-12"/>
      <point x="129.903" y="56"/>
      <point x="143.082" y="118" type="qcurve" smooth="yes"/>
      <point x="261.688" y="676" type="line"/>
      <point x="177.326" y="679" type="line"/>
      <point x="181.364" y="698" type="line"/>
      <point x="284.364" y="698" type="line"/>
    </contour>
    <contour>
      <point x="244.229" y="735" type="move" name="top"/>
    </contour>
  </outline>
</glyph>
<glyph name="K" format="1">
  <advance width="457"/>
  <unicode hex="004B"/>
    <anchor name="bottom" x="228" y="0"/>
  <outline>
    <contour>
      <point x="125.268" y="307" type="line"/>
      <point x="511.395" y="698" type="line"/>
      <point x="533.395" y="698" type="line"/>
      <point x="257.654" y="417" type="line"/>
      <point x="437" y="0" type="line"/>
      <point x="416" y="0" type="line"/>
      <point x="241.465" y="402" type="line"/>
      <point x="119.315" y="279" type="line"/>
      <point x="60" y="0" type="line"/>
      <point x="41" y="0" type="line"/>
      <point x="189.395" y="698" type="line"/>
      <point x="208.395" y="698" type="line"/>
    </contour>
    <contour>
      <point x="228" y="0" type="move" name="bottom"/>
    </contour>
  </outline>
</glyph>
<glyph name="L" format="1">
  <advance width="419"/>
  <unicode hex="004C"/>
    <anchor name="top" x="365.229" y="735"/>
    <anchor name="bottom" x="209" y="0"/>
  <outline>
    <contour>
      <point x="41" y="0" type="line"/>
      <point x="189.395" y="698" type="line"/>
      <point x="208.395" y="698" type="line"/>
      <point x="64.252" y="20" type="line"/>
      <point x="405.252" y="20" type="line"/>
      <point x="401" y="0" type="line"/>
    </contour>
    <contour>
      <point x="365.229" y="735" type="move" name="top"/>
    </contour>
    <contour>
      <point x="209" y="0" type="move" name="bottom"/>
    </contour>
  </outline>
</glyph>
<glyph name="U" format="1">
  <advance width="496"/>
  <unicode hex="0055"/>
    <anchor name="top" x="404.229" y="735"/>
    <anchor name="ogonek" x="247" y="0"/>
  <outline>
    <contour>
      <point x="495.323" y="185" type="line" smooth="yes"/>
      <point x="473.855" y="84"/>
      <point x="401.652" y="36" type="qcurve" smooth="yes"/>
      <point x="331.662" y="-11"/>
      <point x="245.662" y="-11" type="qcurve" smooth="yes"/>
      <point x="158.662" y="-11"/>
      <point x="106.652" y="36" type="qcurve"/>
      <point x="55.8548" y="84"/>
      <point x="77.323" y="185" type="qcurve" smooth="yes"/>
      <point x="186.364" y="698" type="line"/>
      <point x="204.364" y="698" type="line"/>
      <point x="95.1104" y="184" type="line" smooth="yes"/>
      <point x="76.4054" y="96"/>
      <point x="123.053" y="52" type="qcurve" smooth="yes"/>
      <point x="169.7" y="8"/>
      <point x="249.7" y="8" type="qcurve" smooth="yes"/>
      <point x="288.7" y="8"/>
      <point x="361.164" y="29"/>
      <point x="392.628" y="50" type="qcurve" smooth="yes"/>
      <point x="425.092" y="71"/>
      <point x="466.333" y="138"/>
      <point x="476.11" y="184" type="qcurve" smooth="yes"/>
      <point x="585.364" y="698" type="line"/>
      <point x="604.364" y="698" type="line"/>
    </contour>
    <contour>
      <point x="404.229" y="735" type="move" name="top"/>
    </contour>
    <contour>
      <point x="247" y="0" type="move" name="ogonek"/>
    </contour>
  </outline>
</glyph>
<glyph name="b" format="1">
  <advance width="454"/>
  <unicode hex="0062"/>
  <outline>
    <contour>
      <point x="159.902" y="470" type="line"/>
      <point x="201.515" y="487"/>
      <point x="299.979" y="508"/>
      <point x="354.979" y="508" type="qcurve" smooth="yes"/>
      <point x="404.979" y="508"/>
      <point x="467.815" y="479"/>
      <point x="499.25" y="434"/>
      <point x="506.197" y="382"/>
      <point x="501.095" y="358" type="qcurve"/>
      <point x="501.095" y="358"/>
      <point x="493.018" y="320"/>
      <point x="480.902" y="263"/>
      <point x="469" y="207"/>
      <point x="460.71" y="168"/>
      <point x="460.71" y="168" type="qcurve"/>
      <point x="448.169" y="109"/>
      <point x="390.165" y="29"/>
      <point x="291.663" y="-11"/>
      <point x="217.663" y="-11" type="qcurve" smooth="yes"/>
      <point x="202.663" y="-11"/>
      <point x="145.3" y="-8"/>
      <point x="83.1506" y="-4"/>
      <point x="40.7882" y="-1"/>
      <point x="40.7882" y="-1" type="qcurve"/>
      <point x="189.365" y="698" type="line"/>
      <point x="208.365" y="698" type="line"/>
    </contour>
    <contour>
      <point x="63.826" y="18" type="qcurve"/>
      <point x="63.826" y="18"/>
      <point x="99.1884" y="15"/>
      <point x="151.338" y="11"/>
      <point x="204.488" y="7"/>
      <point x="221.488" y="7" type="qcurve"/>
      <point x="280.275" y="6"/>
      <point x="359.014" y="33"/>
      <point x="408.792" y="79"/>
      <point x="434.483" y="134"/>
      <point x="440.222" y="161" type="qcurve" smooth="yes"/>
      <point x="441.922" y="169"/>
      <point x="453.4" y="223"/>
      <point x="467.641" y="290"/>
      <point x="479.332" y="345"/>
      <point x="481.245" y="354" type="qcurve" smooth="yes"/>
      <point x="489.322" y="392"/>
      <point x="466.501" y="454"/>
      <point x="404.365" y="491"/>
      <point x="352.365" y="491" type="qcurve" smooth="yes"/>
      <point x="297.365" y="491"/>
      <point x="199.477" y="468"/>
      <point x="155.65" y="450" type="qcurve"/>
      <point x="155.65" y="450"/>
      <point x="145.66" y="403"/>
      <point x="129.293" y="326"/>
      <point x="109.738" y="234"/>
      <point x="90.1831" y="142"/>
      <point x="73.8162" y="65"/>
      <point x="63.8261" y="18"/>
    </contour>
  </outline>
</glyph>
<glyph name="c" format="1">
  <advance width="377"/>
  <unicode hex="0063"/>
    <anchor name="bottom" x="188" y="0"/>
    <anchor name="top" x="303.843" y="545"/>
  <outline>
    <contour>
      <point x="437.138" y="457" type="line"/>
      <point x="398.815" y="479"/>
      <point x="314.79" y="493"/>
      <point x="275.09" y="485" type="qcurve" smooth="yes"/>
      <point x="242.602" y="478"/>
      <point x="184.375" y="444"/>
      <point x="161.636" y="417" type="qcurve" smooth="yes"/>
      <point x="144.172" y="396"/>
      <point x="120.332" y="345"/>
      <point x="113.53" y="313" type="qcurve" smooth="yes"/>
      <point x="84.1974" y="175" type="line" smooth="yes"/>
      <point x="72.0817" y="118"/>
      <point x="96.2897" y="39"/>
      <point x="145.464" y="21" type="qcurve" smooth="yes"/>
      <point x="176.126" y="10"/>
      <point x="247.7" y="8"/>
      <point x="310.401" y="16"/>
      <point x="350.314" y="25"/>
      <point x="350.314" y="25" type="qcurve"/>
      <point x="350.063" y="5" type="line"/>
      <point x="297.3" y="-8"/>
      <point x="182.237" y="-13"/>
      <point x="140.213" y="1" type="qcurve" smooth="yes"/>
      <point x="92.826" y="18"/>
      <point x="49.2557" y="100"/>
      <point x="64.7723" y="173" type="qcurve" smooth="yes"/>
      <point x="95.593" y="318" type="line"/>
      <point x="104.607" y="351"/>
      <point x="127.448" y="402"/>
      <point x="145.549" y="426" type="qcurve" smooth="yes"/>
      <point x="172.563" y="459"/>
      <point x="236.641" y="497"/>
      <point x="272.129" y="504" type="qcurve" smooth="yes"/>
      <point x="318.042" y="513"/>
      <point x="409.641" y="497"/>
      <point x="448.177" y="476" type="qcurve"/>
    </contour>
    <contour>
      <point x="188" y="0" type="move" name="bottom"/>
    </contour>
    <contour>
      <point x="303.843" y="545" type="move" name="top"/>
    </contour>
  </outline>
</glyph>
<glyph name="d" format="1">
  <advance width="455"/>
  <unicode hex="0064"/>
    <anchor name="top" x="383.229" y="735"/>
  <outline>
    <contour>
      <point x="411.787" y="-1" type="line"/>
      <point x="411.787" y="-1"/>
      <point x="368.15" y="-4"/>
      <point x="304.299" y="-8"/>
      <point x="245.661" y="-11"/>
      <point x="230.661" y="-11" type="qcurve" smooth="yes"/>
      <point x="157.661" y="-11"/>
      <point x="76.1654" y="29"/>
      <point x="51.1734" y="109"/>
      <point x="63.7168" y="168" type="qcurve" smooth="yes"/>
      <point x="104.111" y="358" type="line" smooth="yes"/>
      <point x="110.914" y="390"/>
      <point x="159.583" y="459"/>
      <point x="248.001" y="508"/>
      <point x="315.001" y="508" type="qcurve" smooth="yes"/>
      <point x="370.001" y="508"/>
      <point x="457.536" y="487"/>
      <point x="492.922" y="470" type="qcurve"/>
      <point x="541.395" y="698" type="line"/>
      <point x="560.395" y="698" type="line"/>
    </contour>
    <contour>
      <point x="488.67" y="450" type="line"/>
      <point x="453.497" y="468"/>
      <point x="365.387" y="491"/>
      <point x="309.387" y="491" type="qcurve" smooth="yes"/>
      <point x="258.387" y="491"/>
      <point x="180.52" y="454"/>
      <point x="131.339" y="392"/>
      <point x="123.26" y="354" type="qcurve" smooth="yes"/>
      <point x="82.2286" y="161" type="line" smooth="yes"/>
      <point x="76.4884" y="134"/>
      <point x="78.7954" y="79"/>
      <point x="109.016" y="33"/>
      <point x="176.276" y="6"/>
      <point x="235.488" y="7" type="qcurve"/>
      <point x="252.488" y="7"/>
      <point x="306.339" y="11"/>
      <point x="360.189" y="15"/>
      <point x="396.827" y="18"/>
      <point x="396.827" y="18" type="qcurve"/>
    </contour>
    <contour>
      <point x="383.229" y="735" type="move" name="top"/>
    </contour>
  </outline>
</glyph>
<glyph name="g" format="1">
  <advance width="437"/>
  <unicode hex="0067"/>
    <anchor name="top" x="333.843" y="545"/>
  <outline>
    <contour>
      <point x="384.394" y="-64" type="line" smooth="yes"/>
      <point x="371.638" y="-124"/>
      <point x="306.181" y="-192"/>
      <point x="245.354" y="-210" type="qcurve"/>
      <point x="242.968" y="-193" type="line"/>
      <point x="260.456" y="-186"/>
      <point x="309.134" y="-164"/>
      <point x="353.976" y="-113"/>
      <point x="364.606" y="-63" type="qcurve" smooth="yes"/>
      <point x="395.008" y="80" type="line"/>
      <point x="377.843" y="51"/>
      <point x="308.126" y="10"/>
      <point x="231.449" y="-12"/>
      <point x="200.449" y="-12" type="qcurve" smooth="yes"/>
      <point x="117.449" y="-12"/>
      <point x="46.8584" y="84"/>
      <point x="66.205" y="175" type="qcurve" smooth="yes"/>
      <point x="102.134" y="344" type="line" smooth="yes"/>
      <point x="119.142" y="424"/>
      <point x="230.851" y="512"/>
      <point x="312.001" y="508" type="qcurve" smooth="yes"/>
      <point x="335.788" y="507"/>
      <point x="395.024" y="494"/>
      <point x="452.709" y="469"/>
      <point x="473.883" y="451" type="qcurve"/>
      <point x="483.875" y="498" type="line"/>
      <point x="503.875" y="498" type="line"/>
    </contour>
    <contour>
      <point x="468.568" y="426" type="line"/>
      <point x="452.245" y="448"/>
      <point x="390.41" y="477"/>
      <point x="321.174" y="490"/>
      <point x="291.749" y="488" type="qcurve"/>
      <point x="255.536" y="487"/>
      <point x="186.796" y="460"/>
      <point x="133.615" y="398"/>
      <point x="122.56" y="346" type="qcurve" smooth="yes"/>
      <point x="84.7168" y="168" type="line" smooth="yes"/>
      <point x="68.5592" y="92"/>
      <point x="126.339" y="11"/>
      <point x="189.701" y="8" type="qcurve"/>
      <point x="233.063" y="5"/>
      <point x="327.441" y="35"/>
      <point x="399.047" y="99"/>
      <point x="409.252" y="147" type="qcurve" smooth="yes"/>
    </contour>
    <contour>
      <point x="333.843" y="545" type="move" name="top"/>
    </contour>
  </outline>
</glyph>
<glyph name="i" format="1">
  <advance width="116"/>
  <unicode hex="0069"/>
  <outline>
    <contour>
      <point x="47" y="0" type="line"/>
      <point x="153.066" y="499" type="line"/>
      <point x="172.066" y="499" type="line"/>
      <point x="66" y="0" type="line"/>
    </contour>
    <contour>
      <point x="207.49" y="708" type="qcurve" smooth="yes"/>
      <point x="214.49" y="708"/>
      <point x="222.577" y="699"/>
      <point x="220.877" y="691" type="qcurve" smooth="yes"/>
      <point x="219.389" y="684"/>
      <point x="207.263" y="674"/>
      <point x="200.263" y="674" type="qcurve" smooth="yes"/>
      <point x="193.263" y="674"/>
      <point x="185.389" y="684"/>
      <point x="186.877" y="691" type="qcurve" smooth="yes"/>
      <point x="188.577" y="699"/>
      <point x="200.49" y="708"/>
    </contour>
  </outline>
</glyph>
<glyph name="j" format="1">
  <advance width="181"/>
  <unicode hex="006A"/>
  <outline>
    <contour>
      <point x="116.546" y="-68" type="line" smooth="yes"/>
      <point x="108.894" y="-104"/>
      <point x="80.8412" y="-156"/>
      <point x="58.8026" y="-175" type="qcurve" smooth="yes"/>
      <point x="43.2519" y="-187"/>
      <point x="4.21335" y="-206"/>
      <point x="-20.2745" y="-213" type="qcurve"/>
      <point x="-22.661" y="-196" type="line"/>
      <point x="2.25196" y="-187"/>
      <point x="28.0152" y="-174"/>
      <point x="47.7784" y="-161" type="qcurve" smooth="yes"/>
      <point x="66.7542" y="-147"/>
      <point x="92.5318" y="-101"/>
      <point x="99.7587" y="-67" type="qcurve" smooth="yes"/>
      <point x="216.24" y="481" type="line"/>
      <point x="131.24" y="481" type="line"/>
      <point x="135.066" y="499" type="line"/>
      <point x="237.066" y="499" type="line"/>
    </contour>
    <contour>
      <point x="285.877" y="691" type="qcurve" smooth="yes"/>
      <point x="284.389" y="684"/>
      <point x="274.263" y="674"/>
      <point x="266.263" y="674" type="qcurve" smooth="yes"/>
      <point x="259.263" y="674"/>
      <point x="251.389" y="684"/>
      <point x="252.877" y="691" type="qcurve" smooth="yes"/>
      <point x="254.577" y="699"/>
      <point x="266.278" y="707"/>
      <point x="273.278" y="707" type="qcurve" smooth="yes"/>
      <point x="281.278" y="707"/>
      <point x="287.577" y="699"/>
    </contour>
  </outline>
</glyph>
<glyph name="r" format="1">
  <advance width="329"/>
  <unicode hex="0072"/>
    <anchor name="top" x="279.843" y="545"/>
    <anchor name="bottom" x="164" y="0"/>
  <outline>
    <contour>
      <point x="412.174" y="490" type="line"/>
      <point x="401.599" y="492"/>
      <point x="378.024" y="494"/>
      <point x="367.024" y="494" type="qcurve" smooth="yes"/>
      <point x="342.024" y="494"/>
      <point x="282.261" y="481"/>
      <point x="202.52" y="454"/>
      <point x="148.843" y="432" type="qcurve"/>
      <point x="57" y="0" type="line"/>
      <point x="38" y="0" type="line"/>
      <point x="144.087" y="499" type="line"/>
      <point x="163.087" y="499" type="line"/>
      <point x="153.308" y="453" type="line"/>
      <point x="220.835" y="479"/>
      <point x="330.064" y="513"/>
      <point x="373.064" y="513" type="qcurve" smooth="yes"/>
      <point x="385.064" y="513"/>
      <point x="407.213" y="509"/>
      <point x="416.576" y="506" type="qcurve"/>
    </contour>
    <contour>
      <point x="279.843" y="545" type="move" name="top"/>
    </contour>
    <contour>
      <point x="164" y="0" type="move" name="bottom"/>
    </contour>
  </outline>
</glyph>
<glyph name="exclamdown" format="1">
  <advance width="116"/>
  <unicode hex="00A1"/>
  <outline>
    <contour>
      <point x="76.826" y="18" type="line" smooth="yes"/>
      <point x="73" y="0"/>
      <point x="58" y="0" type="qcurve" smooth="yes"/>
      <point x="52" y="0"/>
      <point x="43.1256" y="10"/>
      <point x="44.8261" y="18" type="qcurve" smooth="yes"/>
      <point x="174.983" y="588" type="line"/>
      <point x="189.983" y="588" type="line"/>
    </contour>
    <contour>
      <point x="220.877" y="691" type="qcurve" smooth="yes"/>
      <point x="219.389" y="684"/>
      <point x="207.263" y="674"/>
      <point x="201.263" y="674" type="qcurve" smooth="yes"/>
      <point x="194.263" y="674"/>
      <point x="185.389" y="684"/>
      <point x="186.877" y="691" type="qcurve" smooth="yes"/>
      <point x="188.577" y="699"/>
      <point x="201.49" y="708"/>
      <point x="208.49" y="708" type="qcurve" smooth="yes"/>
      <point x="214.49" y="708"/>
      <point x="222.577" y="699"/>
    </contour>
  </outline>
</glyph>
<glyph name="registered" format="1">
  <advance width="693"/>
  <unicode hex="00AE"/>
  <outline>
    <contour>
      <point x="701.598" y="191" type="line" smooth="yes"/>
      <point x="683.531" y="106"/>
      <point x="578.087" y="-9"/>
      <point x="422.759" y="-67"/>
      <point x="330.546" y="-68" type="qcurve"/>
      <point x="239.759" y="-67"/>
      <point x="109.087" y="-9"/>
      <point x="52.531" y="106"/>
      <point x="70.5983" y="191" type="qcurve" smooth="yes"/>
      <point x="97.8056" y="319" type="line" smooth="yes"/>
      <point x="116.085" y="405"/>
      <point x="221.317" y="519"/>
      <point x="376.858" y="578"/>
      <point x="468.07" y="579" type="qcurve"/>
      <point x="559.858" y="578"/>
      <point x="690.317" y="519"/>
      <point x="747.085" y="405"/>
      <point x="728.806" y="319" type="qcurve" smooth="yes"/>
    </contour>
    <contour>
      <point x="711.168" y="316" type="line" smooth="yes"/>
      <point x="728.385" y="397"/>
      <point x="674.554" y="506"/>
      <point x="551.244" y="561"/>
      <point x="464.244" y="561" type="qcurve" smooth="yes"/>
      <point x="377.244" y="561"/>
      <point x="230.554" y="506"/>
      <point x="130.385" y="397"/>
      <point x="113.168" y="316" type="qcurve" smooth="yes"/>
      <point x="87.236" y="194" type="line" smooth="yes"/>
      <point x="70.2314" y="114"/>
      <point x="123.85" y="4"/>
      <point x="247.16" y="-51"/>
      <point x="333.947" y="-52" type="qcurve"/>
      <point x="421.16" y="-51"/>
      <point x="567.85" y="4"/>
      <point x="668.231" y="114"/>
      <point x="685.236" y="194" type="qcurve" smooth="yes"/>
    </contour>
    <contour>
      <point x="514.95" y="442" type="line" smooth="yes"/>
      <point x="538.95" y="442"/>
      <point x="574.612" y="431"/>
      <point x="597.298" y="406"/>
      <point x="602.945" y="362"/>
      <point x="595.719" y="328" type="qcurve" smooth="yes"/>
      <point x="582.753" y="267"/>
      <point x="527.337" y="218"/>
      <point x="485.7" y="215" type="qcurve"/>
      <point x="534.541" y="59" type="line"/>
      <point x="514.541" y="59" type="line"/>
      <point x="464.062" y="212" type="line"/>
      <point x="251.062" y="212" type="line"/>
      <point x="218.541" y="59" type="line"/>
      <point x="198.541" y="59" type="line"/>
      <point x="279.95" y="442" type="line"/>
    </contour>
    <contour>
      <point x="478.313" y="232" type="line" smooth="yes"/>
      <point x="523.313" y="232"/>
      <point x="567.091" y="278"/>
      <point x="577.506" y="327" type="qcurve" smooth="yes"/>
      <point x="587.134" y="377"/>
      <point x="561.699" y="422"/>
      <point x="518.699" y="422" type="qcurve" smooth="yes"/>
      <point x="295.699" y="422" type="line"/>
      <point x="255.313" y="232" type="line"/>
    </contour>
  </outline>
</glyph>
<glyph name="degree" format="1">
  <advance width="347"/>
  <unicode hex="00B0"/>
  <outline>
    <contour>
      <point x="437.669" y="563" type="qcurve" smooth="yes"/>
      <point x="429.167" y="523"/>
      <point x="376.138" y="457"/>
      <point x="301.849" y="418"/>
      <point x="261.849" y="418" type="qcurve" smooth="yes"/>
      <point x="221.849" y="418"/>
      <point x="163.138" y="457"/>
      <point x="138.167" y="523"/>
      <point x="146.669" y="563" type="qcurve" smooth="yes"/>
      <point x="155.172" y="603"/>
      <point x="208.2" y="669"/>
      <point x="283.49" y="708"/>
      <point x="323.49" y="708" type="qcurve" smooth="yes"/>
      <point x="363.49" y="708"/>
      <point x="421.2" y="669"/>
      <point x="446.172" y="603"/>
    </contour>
    <contour>
      <point x="319.451" y="689" type="qcurve" smooth="yes"/>
      <point x="284.451" y="689"/>
      <point x="220.225" y="655"/>
      <point x="174.109" y="598"/>
      <point x="166.669" y="563" type="qcurve" smooth="yes"/>
      <point x="159.442" y="529"/>
      <point x="181.327" y="472"/>
      <point x="231.1" y="438"/>
      <point x="266.1" y="438" type="qcurve" smooth="yes"/>
      <point x="301.1" y="438"/>
      <point x="364.327" y="472"/>
      <point x="410.442" y="529"/>
      <point x="417.669" y="563" type="qcurve" smooth="yes"/>
      <point x="425.109" y="598"/>
      <point x="403.225" y="655"/>
      <point x="354.451" y="689"/>
    </contour>
  </outline>
</glyph>
<glyph name="questiondown" format="1">
  <advance width="411"/>
  <unicode hex="00BF"/>
  <outline>
    <contour>
      <point x="415.434" y="162" type="line"/>
      <point x="402.468" y="101"/>
      <point x="333.464" y="21"/>
      <point x="244.599" y="-16"/>
      <point x="200.812" y="-15" type="qcurve" smooth="yes"/>
      <point x="157.024" y="-14"/>
      <point x="84.5265" y="26"/>
      <point x="49.4682" y="101"/>
      <point x="61.1588" y="156" type="qcurve" smooth="yes"/>
      <point x="72.8494" y="211"/>
      <point x="129.579" y="285"/>
      <point x="168.806" y="319" type="qcurve" smooth="yes"/>
      <point x="205.607" y="351"/>
      <point x="255.747" y="394"/>
      <point x="287.187" y="429"/>
      <point x="305.902" y="470"/>
      <point x="312.066" y="499" type="qcurve" smooth="yes"/>
      <point x="314.616" y="511"/>
      <point x="322.056" y="546"/>
      <point x="327.795" y="573"/>
      <point x="327.795" y="573" type="qcurve"/>
      <point x="346.795" y="573" type="line"/>
      <point x="332.341" y="505" type="line" smooth="yes"/>
      <point x="323.839" y="465"/>
      <point x="295.786" y="413"/>
      <point x="256.284" y="373"/>
      <point x="204.144" y="330"/>
      <point x="171.554" y="299" type="qcurve" smooth="yes"/>
      <point x="144.028" y="273"/>
      <point x="106.463" y="228"/>
      <point x="84.1104" y="184"/>
      <point x="78.3714" y="157" type="qcurve" smooth="yes"/>
      <point x="69.8692" y="117"/>
      <point x="94.7776" y="46"/>
      <point x="156.638" y="3"/>
      <point x="204.638" y="3" type="qcurve" smooth="yes"/>
      <point x="243.638" y="3"/>
      <point x="322.865" y="37"/>
      <point x="383.956" y="108"/>
      <point x="395.434" y="162" type="qcurve"/>
    </contour>
    <contour>
      <point x="362.727" y="695" type="qcurve" smooth="yes"/>
      <point x="370.727" y="695"/>
      <point x="378.026" y="687"/>
      <point x="376.326" y="679" type="qcurve" smooth="yes"/>
      <point x="374.838" y="672"/>
      <point x="363.712" y="662"/>
      <point x="355.712" y="662" type="qcurve" smooth="yes"/>
      <point x="348.712" y="662"/>
      <point x="340.838" y="672"/>
      <point x="342.326" y="679" type="qcurve" smooth="yes"/>
      <point x="344.026" y="687"/>
      <point x="355.727" y="695"/>
    </contour>
  </outline>
</glyph>
<glyph name="Oslash" format="1">
  <advance width="486"/>
  <unicode hex="00D8"/>
  <outline>
    <contour>
      <point x="79.9811" y="-113" type="line"/>
      <point x="599.234" y="815" type="line"/>
      <point x="620.234" y="815" type="line"/>
      <point x="99.9811" y="-113" type="line"/>
    </contour>
    <component base="O"/>
  </outline>
</glyph>
<glyph name="germandbls" format="1">
  <advance width="462"/>
  <unicode hex="00DF"/>
  <outline>
    <contour>
      <point x="59" y="0" type="line"/>
      <point x="54" y="0"/>
      <point x="44" y="0"/>
      <point x="39" y="0" type="qcurve"/>
      <point x="153.993" y="541" type="line" smooth="yes"/>
      <point x="167.172" y="603"/>
      <point x="219.625" y="671"/>
      <point x="283.364" y="698"/>
      <point x="313.364" y="698" type="qcurve" smooth="yes"/>
      <point x="350.364" y="698"/>
      <point x="395.925" y="663"/>
      <point x="413.66" y="610"/>
      <point x="407.92" y="583" type="qcurve" smooth="yes"/>
      <point x="401.119" y="551"/>
      <point x="355.641" y="497"/>
      <point x="318.578" y="492" type="qcurve"/>
      <point x="316.578" y="492"/>
      <point x="312.578" y="492"/>
      <point x="309.578" y="492"/>
      <point x="307.578" y="492" type="qcurve"/>
      <point x="297.815" y="479"/>
      <point x="287.501" y="454"/>
      <point x="286.163" y="443" type="qcurve" smooth="yes"/>
      <point x="281.148" y="410"/>
      <point x="322.458" y="355"/>
      <point x="390.405" y="303"/>
      <point x="424.815" y="272" type="qcurve" smooth="yes"/>
      <point x="444.777" y="253"/>
      <point x="465" y="207"/>
      <point x="470.797" y="159"/>
      <point x="465.696" y="135" type="qcurve" smooth="yes"/>
      <point x="458.619" y="97"/>
      <point x="408.377" y="30"/>
      <point x="329.663" y="-11"/>
      <point x="279.663" y="-11" type="qcurve" smooth="yes"/>
      <point x="229.663" y="-11"/>
      <point x="167.764" y="13"/>
      <point x="140.653" y="36"/>
      <point x="140.653" y="36" type="qcurve"/>
      <point x="145.716" y="41"/>
      <point x="154.841" y="51"/>
      <point x="159.691" y="55" type="qcurve"/>
      <point x="159.691" y="55"/>
      <point x="185.803" y="32"/>
      <point x="237.914" y="9"/>
      <point x="276.914" y="9" type="qcurve" smooth="yes"/>
      <point x="334.914" y="9"/>
      <point x="404.841" y="51"/>
      <point x="440.595" y="111"/>
      <point x="446.121" y="137" type="qcurve" smooth="yes"/>
      <point x="455.048" y="179"/>
      <point x="433.526" y="233"/>
      <point x="391.241" y="274"/>
      <point x="366.492" y="294" type="qcurve" smooth="yes"/>
      <point x="346.106" y="311"/>
      <point x="307.12" y="344"/>
      <point x="276.772" y="380"/>
      <point x="263.487" y="421"/>
      <point x="268.801" y="446" type="qcurve" smooth="yes"/>
      <point x="271.564" y="459"/>
      <point x="284.941" y="489"/>
      <point x="296.342" y="505" type="qcurve"/>
      <point x="337.342" y="505"/>
      <point x="385.332" y="552"/>
      <point x="390.709" y="582" type="qcurve" smooth="yes"/>
      <point x="394.597" y="605"/>
      <point x="380.163" y="650"/>
      <point x="342.539" y="680"/>
      <point x="310.539" y="680" type="qcurve" smooth="yes"/>
      <point x="203.539" y="680"/>
      <point x="173.569" y="539" type="qcurve" smooth="yes"/>
    </contour>
  </outline>
</glyph>
<glyph name="dslash" format="1">
  <advance width="455"/>
  <unicode hex="0111"/>
  <outline>
    <contour>
      <point x="711.942" y="595" type="line"/>
      <point x="720.445" y="615" type="line"/>
      <point x="484.445" y="615" type="line"/>
      <point x="475.942" y="595" type="line"/>
    </contour>
    <component base="d" yxScale="0.2125"/>
  </outline>
</glyph>
<glyph name="hbar" format="1">
  <advance width="468"/>
  <unicode hex="0127"/>
  <outline>
    <contour>
      <point x="385.471" y="595" type="line"/>
      <point x="150.471" y="595" type="line"/>
      <point x="154.722" y="615" type="line"/>
      <point x="389.722" y="615" type="line"/>
    </contour>
    <contour>
      <point x="187.114" y="471" type="line"/>
      <point x="213.452" y="482"/>
      <point x="300.554" y="506"/>
      <point x="339.979" y="508" type="qcurve" smooth="yes"/>
      <point x="373.404" y="510"/>
      <point x="442.916" y="503"/>
      <point x="497.114" y="471"/>
      <point x="521.873" y="404"/>
      <point x="509.332" y="345" type="qcurve" smooth="yes"/>
      <point x="436" y="0" type="line"/>
      <point x="417" y="0" type="line"/>
      <point x="490.545" y="346" type="line" smooth="yes"/>
      <point x="502.66" y="403"/>
      <point x="475.689" y="469"/>
      <point x="404.428" y="496"/>
      <point x="349.79" y="493" type="qcurve" smooth="yes"/>
      <point x="306.365" y="491"/>
      <point x="213.264" y="467"/>
      <point x="183.288" y="453" type="qcurve"/>
      <point x="87" y="0" type="line"/>
      <point x="67" y="0" type="line"/>
      <point x="215.364" y="698" type="line"/>
      <point x="235.364" y="698" type="line"/>
    </contour>
  </outline>
</glyph>
<glyph name="dotlessi" format="1">
  <advance width="95"/>
  <unicode hex="0131"/>
    <anchor name="top" x="203.229" y="735"/>
    <anchor name="tonos" x="163.79" y="700"/>
    <anchor name="ogonek" x="46" y="0"/>
  <outline>
    <contour>
      <point x="38" y="0" type="line"/>
      <point x="144.066" y="499" type="line"/>
      <point x="162.066" y="499" type="line"/>
      <point x="56" y="0" type="line"/>
    </contour>
    <contour>
      <point x="203.229" y="735" type="move" name="top"/>
    </contour>
    <contour>
      <point x="163.79" y="700" type="move" name="tonos"/>
    </contour>
    <contour>
      <point x="46" y="0" type="move" name="ogonek"/>
    </contour>
  </outline>
</glyph>
<glyph name="IJ" format="1">
  <advance width="558"/>
  <unicode hex="0132"/>
  <outline>
    <contour>
      <point x="667.365" y="698" type="line"/>
      <point x="558.323" y="185" type="line" smooth="yes"/>
      <point x="536.855" y="84"/>
      <point x="464.652" y="36" type="qcurve" smooth="yes"/>
      <point x="394.662" y="-11"/>
      <point x="308.662" y="-11" type="qcurve" smooth="yes"/>
      <point x="265.662" y="-11"/>
      <point x="196.551" y="12"/>
      <point x="169.652" y="36" type="qcurve" smooth="yes"/>
      <point x="143.753" y="60"/>
      <point x="129.695" y="135"/>
      <point x="140.323" y="185" type="qcurve" smooth="yes"/>
      <point x="150.738" y="234" type="line"/>
      <point x="168.738" y="234" type="line"/>
      <point x="158.11" y="184" type="line" smooth="yes"/>
      <point x="148.758" y="140"/>
      <point x="160.304" y="72"/>
      <point x="183.628" y="50" type="qcurve" smooth="yes"/>
      <point x="206.952" y="28"/>
      <point x="272.7" y="8"/>
      <point x="312.7" y="8" type="qcurve" smooth="yes"/>
      <point x="351.7" y="8"/>
      <point x="424.164" y="29"/>
      <point x="455.628" y="50" type="qcurve" smooth="yes"/>
      <point x="488.092" y="71"/>
      <point x="529.333" y="138"/>
      <point x="539.11" y="184" type="qcurve" smooth="yes"/>
      <point x="643.901" y="677" type="line"/>
      <point x="559.326" y="679" type="line"/>
      <point x="563.364" y="698" type="line"/>
    </contour>
    <contour>
      <point x="267.364" y="698" type="line"/>
      <point x="174.69" y="262" type="line"/>
      <point x="156.69" y="262" type="line"/>
      <point x="244.688" y="676" type="line"/>
      <point x="159.326" y="679" type="line"/>
      <point x="163.364" y="698" type="line"/>
    </contour>
  </outline>
</glyph>
<glyph name="eng" format="1">
  <advance width="442"/>
  <unicode hex="014B"/>
  <outline>
    <contour>
      <point x="395.797" y="-48" type="line" smooth="yes"/>
      <point x="387.933" y="-85"/>
      <point x="359.88" y="-137"/>
      <point x="337.054" y="-155" type="qcurve" smooth="yes"/>
      <point x="321.29" y="-168"/>
      <point x="282.252" y="-187"/>
      <point x="257.551" y="-195" type="qcurve"/>
      <point x="255.377" y="-177" type="line"/>
      <point x="280.29" y="-168"/>
      <point x="304.841" y="-156"/>
      <point x="325.817" y="-142" type="qcurve" smooth="yes"/>
      <point x="344.793" y="-128"/>
      <point x="368.783" y="-81"/>
      <point x="375.797" y="-48" type="qcurve" smooth="yes"/>
      <point x="459.545" y="346" type="line" smooth="yes"/>
      <point x="471.66" y="403"/>
      <point x="445.689" y="469"/>
      <point x="375.428" y="496"/>
      <point x="320.79" y="493" type="qcurve" smooth="yes"/>
      <point x="275.365" y="491"/>
      <point x="184.264" y="467"/>
      <point x="153.288" y="453" type="qcurve"/>
      <point x="57" y="0" type="line"/>
      <point x="38" y="0" type="line"/>
      <point x="143.853" y="498" type="line"/>
      <point x="162.853" y="498" type="line"/>
      <point x="157.114" y="471" type="line"/>
      <point x="184.452" y="482"/>
      <point x="271.554" y="506"/>
      <point x="310.979" y="508" type="qcurve" smooth="yes"/>
      <point x="344.404" y="510"/>
      <point x="412.916" y="503"/>
      <point x="468.114" y="471"/>
      <point x="491.873" y="404"/>
      <point x="479.332" y="345" type="qcurve" smooth="yes"/>
    </contour>
  </outline>
</glyph>
<glyph name="OE" format="1">
  <advance width="794"/>
  <unicode hex="0152"/>
  <outline>
    <contour>
      <point x="433" y="0" type="line"/>
      <point x="453.193" y="95" type="line"/>
      <point x="430.179" y="62"/>
      <point x="364.976" y="14"/>
      <point x="285.662" y="-11"/>
      <point x="240.662" y="-11" type="qcurve" smooth="yes"/>
      <point x="182.662" y="-11"/>
      <point x="96.0144" y="33"/>
      <point x="58.7193" y="121"/>
      <point x="72.323" y="185" type="qcurve" smooth="yes"/>
      <point x="140.554" y="506" type="line" smooth="yes"/>
      <point x="162.234" y="608"/>
      <point x="297.765" y="714"/>
      <point x="396.765" y="714" type="qcurve" smooth="yes"/>
      <point x="465.765" y="714"/>
      <point x="549.437" y="656"/>
      <point x="561.384" y="604" type="qcurve"/>
      <point x="581.364" y="698" type="line"/>
      <point x="914.364" y="698" type="line"/>
      <point x="910.326" y="679" type="line"/>
      <point x="595.326" y="679" type="line"/>
      <point x="538.361" y="411" type="line"/>
      <point x="766.361" y="411" type="line"/>
      <point x="755.535" y="393" type="line"/>
      <point x="534.535" y="393" type="line"/>
      <point x="455.039" y="19" type="line"/>
      <point x="768.039" y="19" type="line"/>
      <point x="764" y="0" type="line"/>
    </contour>
    <contour>
      <point x="91.1104" y="184" type="line" smooth="yes"/>
      <point x="79.8449" y="131"/>
      <point x="113.84" y="51"/>
      <point x="191.7" y="8"/>
      <point x="244.7" y="8" type="qcurve" smooth="yes"/>
      <point x="298.7" y="8"/>
      <point x="392.99" y="47"/>
      <point x="459.57" y="125"/>
      <point x="472.11" y="184" type="qcurve" smooth="yes"/>
      <point x="542.892" y="517" type="line"/>
      <point x="557.534" y="600"/>
      <point x="481.302" y="693"/>
      <point x="389.302" y="693" type="qcurve" smooth="yes"/>
      <point x="295.302" y="693"/>
      <point x="177.833" y="592"/>
      <point x="159.554" y="506" type="qcurve" smooth="yes"/>
    </contour>
  </outline>
</glyph>
<glyph name="dotlessj" format="1">
  <advance width="169"/>
  <unicode hex="0237"/>
    <anchor name="top" x="396.458" y="735"/>
  <outline>
    <contour>
      <point x="101.093" y="-68" type="line" smooth="yes"/>
      <point x="85.7896" y="-104"/>
      <point x="46.6844" y="-156"/>
      <point x="20.6075" y="-175" type="qcurve" smooth="yes"/>
      <point x="2.5063" y="-187"/>
      <point x="-40.5706" y="-206"/>
      <point x="-66.5463" y="-213" type="qcurve"/>
      <point x="-65.3196" y="-196" type="line"/>
      <point x="-38.4937" y="-187"/>
      <point x="-9.9674" y="-174"/>
      <point x="12.5589" y="-161" type="qcurve" smooth="yes"/>
      <point x="56.0366" y="-134"/>
      <point x="84.5183" y="-67" type="qcurve" smooth="yes"/>
      <point x="317.473" y="481" type="line"/>
      <point x="232.473" y="481" type="line"/>
      <point x="240.125" y="499" type="line"/>
      <point x="342.125" y="499" type="line"/>
    </contour>
    <contour>
      <point x="396.458" y="735" type="move" name="top"/>
    </contour>
  </outline>
</glyph>
<glyph name="ring" format="1">
  <advance width="266"/>
  <unicode hex="02DA"/>
  <outline>
    <contour>
      <point x="297.306" y="773" type="qcurve" smooth="yes"/>
      <point x="328.306" y="773"/>
      <point x="372.93" y="743"/>
      <point x="393.089" y="692"/>
      <point x="386.287" y="660" type="qcurve" smooth="yes"/>
      <point x="379.486" y="628"/>
      <point x="337.433" y="576"/>
      <point x="280.056" y="546"/>
      <point x="249.056" y="546" type="qcurve" smooth="yes"/>
      <point x="218.056" y="546"/>
      <point x="172.433" y="576"/>
      <point x="152.486" y="628"/>
      <point x="159.287" y="660" type="qcurve" smooth="yes"/>
      <point x="166.089" y="692"/>
      <point x="207.93" y="743"/>
      <point x="266.306" y="773"/>
    </contour>
    <contour>
      <point x="293.268" y="754" type="qcurve" smooth="yes"/>
      <point x="254.268" y="754"/>
      <point x="186.577" y="699"/>
      <point x="178.287" y="660" type="qcurve" smooth="yes"/>
      <point x="169.785" y="620"/>
      <point x="214.094" y="565"/>
      <point x="253.094" y="565" type="qcurve" smooth="yes"/>
      <point x="291.094" y="565"/>
      <point x="358.785" y="620"/>
      <point x="367.287" y="660" type="qcurve" smooth="yes"/>
      <point x="375.577" y="699"/>
      <point x="331.268" y="754"/>
    </contour>
  </outline>
</glyph>
<glyph name="tilde" format="1">
  <advance width="266"/>
  <unicode hex="02DC"/>
  <outline>
    <contour>
      <point x="369.64" y="704" type="line"/>
      <point x="389.64" y="704" type="line"/>
      <point x="387.727" y="695" type="line" smooth="yes"/>
      <point x="382.838" y="672"/>
      <point x="353.123" y="631"/>
      <point x="325.123" y="631" type="qcurve" smooth="yes"/>
      <point x="313.123" y="631"/>
      <point x="294.249" y="641"/>
      <point x="284.737" y="648" type="qcurve" smooth="yes"/>
      <point x="273.437" y="656"/>
      <point x="253.051" y="673"/>
      <point x="243.538" y="680" type="qcurve" smooth="yes"/>
      <point x="235.601" y="685"/>
      <point x="214.451" y="689"/>
      <point x="204.176" y="683" type="qcurve" smooth="yes"/>
      <point x="193.901" y="677"/>
      <point x="184.799" y="653"/>
      <point x="182.674" y="643" type="qcurve" smooth="yes"/>
      <point x="180.973" y="635" type="line"/>
      <point x="160.973" y="635" type="line"/>
      <point x="162.674" y="643" type="line" smooth="yes"/>
      <point x="166.075" y="659"/>
      <point x="182.302" y="693"/>
      <point x="200.002" y="701" type="qcurve" smooth="yes"/>
      <point x="219.128" y="711"/>
      <point x="253.79" y="700"/>
      <point x="266.664" y="690" type="qcurve" smooth="yes"/>
      <point x="275.176" y="683"/>
      <point x="290.625" y="671"/>
      <point x="298.138" y="664" type="qcurve"/>
      <point x="305.287" y="660"/>
      <point x="318.374" y="651"/>
      <point x="327.374" y="651" type="qcurve"/>
      <point x="347.162" y="650"/>
      <point x="364.326" y="679"/>
      <point x="367.727" y="695" type="qcurve" smooth="yes"/>
    </contour>
  </outline>
</glyph>
<glyph name="Lambda" format="1">
  <advance width="543"/>
  <unicode hex="039B"/>
  <outline>
    <contour>
      <point x="411.988" y="668" type="line"/>
      <point x="39" y="0" type="line"/>
      <point x="20" y="0" type="line"/>
      <point x="409.364" y="698" type="line"/>
      <point x="428.364" y="698" type="line"/>
      <point x="524" y="0" type="line"/>
      <point x="504" y="0" type="line"/>
    </contour>
  </outline>
</glyph>
<glyph name="Xi" format="1">
  <advance width="559"/>
  <unicode hex="039E"/>
  <outline>
    <contour>
      <point x="148.046" y="593" type="line"/>
      <point x="175.949" y="649"/>
      <point x="256.364" y="698"/>
      <point x="315.364" y="698" type="qcurve" smooth="yes"/>
      <point x="639.364" y="698" type="line"/>
      <point x="626.113" y="678" type="line"/>
      <point x="311.113" y="678" type="line" smooth="yes"/>
      <point x="251.113" y="678"/>
      <point x="189.911" y="630"/>
      <point x="164.558" y="586" type="qcurve"/>
    </contour>
    <contour>
      <point x="486.694" y="342" type="line"/>
      <point x="220.694" y="342" type="line"/>
      <point x="224.945" y="362" type="line"/>
      <point x="490.945" y="362" type="line"/>
    </contour>
    <contour>
      <point x="389.251" y="20" type="line" smooth="yes"/>
      <point x="450.251" y="20"/>
      <point x="510.454" y="68"/>
      <point x="535.019" y="113" type="qcurve"/>
      <point x="552.531" y="106" type="line"/>
      <point x="525.628" y="50"/>
      <point x="444" y="0"/>
      <point x="385" y="0" type="qcurve" smooth="yes"/>
      <point x="62" y="0" type="line"/>
      <point x="74.2511" y="20" type="line"/>
    </contour>
  </outline>
</glyph>
<glyph name="Sigma" format="1">
  <advance width="520"/>
  <unicode hex="03A3"/>
  <outline>
    <contour>
      <point x="334.251" y="20" type="line" smooth="yes"/>
      <point x="394.251" y="20"/>
      <point x="466.903" y="56"/>
      <point x="494.806" y="112" type="qcurve"/>
      <point x="513.531" y="106" type="line"/>
      <point x="485.628" y="50"/>
      <point x="406" y="0"/>
      <point x="347" y="0" type="qcurve" smooth="yes"/>
      <point x="25" y="0" type="line"/>
      <point x="331.409" y="383" type="line"/>
      <point x="189.79" y="700" type="line"/>
      <point x="616.79" y="700" type="line"/>
      <point x="603.538" y="680" type="line"/>
      <point x="220.538" y="680" type="line"/>
      <point x="354.197" y="382" type="line"/>
      <point x="63.2511" y="20" type="line"/>
    </contour>
  </outline>
</glyph>
<glyph name="Upsilon" format="1">
  <advance width="513"/>
  <unicode hex="03A5"/>
  <outline>
    <contour>
      <point x="502.821" y="145" type="line" smooth="yes"/>
      <point x="489.43" y="82"/>
      <point x="421.275" y="6"/>
      <point x="366.512" y="-7" type="qcurve"/>
      <point x="364.338" y="11" type="line"/>
      <point x="384.401" y="16"/>
      <point x="431.502" y="40"/>
      <point x="472.618" y="97"/>
      <point x="484.309" y="152" type="qcurve" smooth="yes"/>
      <point x="526.395" y="350" type="line"/>
      <point x="514.569" y="332"/>
      <point x="459.941" y="282"/>
      <point x="371.864" y="244"/>
      <point x="310.864" y="244" type="qcurve" smooth="yes"/>
      <point x="257.864" y="244"/>
      <point x="179.603" y="271"/>
      <point x="155.917" y="296" type="qcurve" smooth="yes"/>
      <point x="130.443" y="322"/>
      <point x="115.023" y="400"/>
      <point x="126.076" y="452" type="qcurve" smooth="yes"/>
      <point x="178.364" y="698" type="line"/>
      <point x="197.364" y="698" type="line"/>
      <point x="146.138" y="457" type="line" smooth="yes"/>
      <point x="135.936" y="409"/>
      <point x="147.206" y="335"/>
      <point x="170.105" y="311" type="qcurve"/>
      <point x="191.004" y="287"/>
      <point x="262.902" y="263"/>
      <point x="314.902" y="263" type="qcurve" smooth="yes"/>
      <point x="396.902" y="263"/>
      <point x="456.617" y="304" type="qcurve" smooth="yes"/>
      <point x="490.293" y="326"/>
      <point x="535.535" y="393"/>
      <point x="543.399" y="430" type="qcurve" smooth="yes"/>
      <point x="600.364" y="698" type="line"/>
      <point x="620.364" y="698" type="line"/>
    </contour>
  </outline>
</glyph>
<glyph name="Omegagreek" format="1">
  <advance width="579"/>
  <unicode hex="03A9"/>
    <anchor name="tonos" x="393.579" y="700"/>
  <outline>
    <contour>
      <point x="616.32" y="196" type="line" smooth="yes"/>
      <point x="589.538" y="133"/>
      <point x="486.405" y="48"/>
      <point x="406.502" y="20" type="qcurve"/>
      <point x="545.502" y="20" type="line"/>
      <point x="546" y="0" type="line"/>
      <point x="318" y="0" type="line"/>
      <point x="326.502" y="20" type="line"/>
      <point x="360.502" y="20"/>
      <point x="436.704" y="44"/>
      <point x="479.482" y="67" type="qcurve" smooth="yes"/>
      <point x="522.259" y="90"/>
      <point x="582.89" y="155"/>
      <point x="600.32" y="196" type="qcurve" smooth="yes"/>
      <point x="729.975" y="501" type="line" smooth="yes"/>
      <point x="770.36" y="596"/>
      <point x="714.619" y="686"/>
      <point x="637.619" y="686" type="qcurve" smooth="yes"/>
      <point x="525.619" y="686" type="line" smooth="yes"/>
      <point x="447.619" y="686"/>
      <point x="316.509" y="594"/>
      <point x="277.4" y="502" type="qcurve" smooth="yes"/>
      <point x="147.32" y="196" type="line" smooth="yes"/>
      <point x="129.89" y="155"/>
      <point x="134.834" y="89"/>
      <point x="157.057" y="66" type="qcurve" smooth="yes"/>
      <point x="179.279" y="43"/>
      <point x="235.502" y="20"/>
      <point x="269.502" y="20" type="qcurve"/>
      <point x="261" y="0" type="line"/>
      <point x="33" y="0" type="line"/>
      <point x="48.502" y="20" type="line"/>
      <point x="187.502" y="20" type="line"/>
      <point x="147.579" y="39"/>
      <point x="111.684" y="91"/>
      <point x="114.166" y="158"/>
      <point x="130.32" y="196" type="qcurve" smooth="yes"/>
      <point x="260.4" y="502" type="line" smooth="yes"/>
      <point x="299.509" y="594"/>
      <point x="439.695" y="705"/>
      <point x="533.695" y="705" type="qcurve" smooth="yes"/>
      <point x="645.695" y="705" type="line" smooth="yes"/>
      <point x="738.695" y="705"/>
      <point x="785.509" y="594"/>
      <point x="746.4" y="502" type="qcurve" smooth="yes"/>
    </contour>
    <contour>
      <point x="393.579" y="700" type="move" name="tonos"/>
    </contour>
  </outline>
</glyph>
<glyph name="gamma" format="1">
  <advance width="499"/>
  <unicode hex="03B3"/>
  <outline>
    <contour>
      <point x="583.578" y="492" type="qcurve"/>
      <point x="551.815" y="479"/>
      <point x="513.163" y="443"/>
      <point x="488.66" y="403"/>
      <point x="477.622" y="384" type="qcurve"/>
      <point x="232.657" y="-91" type="line" smooth="yes"/>
      <point x="224.256" y="-107"/>
      <point x="197.392" y="-144"/>
      <point x="159.377" y="-177"/>
      <point x="105.914" y="-198"/>
      <point x="70.9138" y="-198" type="qcurve"/>
      <point x="69.9524" y="-179" type="line"/>
      <point x="117.952" y="-179"/>
      <point x="175.179" y="-145"/>
      <point x="208.169" y="-98"/>
      <point x="218.208" y="-79" type="qcurve" smooth="yes"/>
      <point x="255.725" y="-6" type="line"/>
      <point x="222.15" y="-4"/>
      <point x="179.164" y="29"/>
      <point x="157.705" y="88"/>
      <point x="154.207" y="128" type="qcurve" smooth="yes"/>
      <point x="152.159" y="156"/>
      <point x="144.502" y="247"/>
      <point x="136.182" y="349"/>
      <point x="129.525" y="440"/>
      <point x="124.853" y="498"/>
      <point x="124.853" y="498" type="qcurve"/>
      <point x="143.853" y="498" type="line"/>
      <point x="143.853" y="498"/>
      <point x="148.013" y="447"/>
      <point x="154.796" y="366"/>
      <point x="161.241" y="274"/>
      <point x="168.023" y="193"/>
      <point x="172.758" y="140"/>
      <point x="172.545" y="139" type="qcurve"/>
      <point x="178.367" y="77"/>
      <point x="219.188" y="15"/>
      <point x="267.188" y="15" type="qcurve"/>
      <point x="267.188" y="15"/>
      <point x="289.116" y="57"/>
      <point x="324.995" y="127"/>
      <point x="367.637" y="210"/>
      <point x="411.492" y="294"/>
      <point x="448.583" y="365"/>
      <point x="459.047" y="386" type="qcurve" smooth="yes"/>
      <point x="475.849" y="418"/>
      <point x="506.201" y="462"/>
      <point x="546.79" y="493"/>
      <point x="576.554" y="506" type="qcurve"/>
      <point x="580.853" y="498"/>
      <point x="583.578" y="492"/>
    </contour>
  </outline>
</glyph>
<glyph name="kappa" format="1">
  <advance width="428"/>
  <unicode hex="03BA"/>
  <outline>
    <contour>
      <point x="314.806" y="112" type="line"/>
      <point x="340.029" y="66"/>
      <point x="387.039" y="19"/>
      <point x="410.039" y="19" type="qcurve"/>
      <point x="405.787" y="-1" type="line"/>
      <point x="379.787" y="-1"/>
      <point x="353.676" y="22" type="qcurve" smooth="yes"/>
      <point x="346.952" y="28"/>
      <point x="332.352" y="44"/>
      <point x="325.478" y="54" type="qcurve" smooth="yes"/>
      <point x="319.604" y="64"/>
      <point x="306.067" y="85"/>
      <point x="300.831" y="98" type="qcurve"/>
      <point x="209.878" y="277" type="line"/>
      <point x="93.8351" y="178" type="line"/>
      <point x="56" y="0" type="line"/>
      <point x="38" y="0" type="line"/>
      <point x="146.404" y="510" type="line"/>
      <point x="163.554" y="506" type="line"/>
      <point x="99.5741" y="205" type="line"/>
      <point x="434.066" y="499" type="line"/>
      <point x="460.066" y="499" type="line"/>
      <point x="224.854" y="291" type="line"/>
    </contour>
  </outline>
</glyph>
<glyph name="lambda" format="1">
  <advance width="499"/>
  <unicode hex="03BB"/>
  <outline>
    <contour>
      <point x="424.019" y="113" type="line" smooth="yes"/>
      <point x="425.98" y="94"/>
      <point x="432.478" y="54"/>
      <point x="457.039" y="19"/>
      <point x="484.063" y="5" type="qcurve"/>
      <point x="484.063" y="5"/>
      <point x="478" y="0"/>
      <point x="470.3" y="-8" type="qcurve"/>
      <point x="446.063" y="5"/>
      <point x="419.652" y="36"/>
      <point x="406.792" y="79"/>
      <point x="403.594" y="111" type="qcurve" smooth="yes"/>
      <point x="402.27" y="133"/>
      <point x="395.361" y="204"/>
      <point x="388.216" y="288"/>
      <point x="380.858" y="371"/>
      <point x="374.737" y="441"/>
      <point x="370.665" y="483"/>
      <point x="370.665" y="483" type="qcurve"/>
      <point x="321.665" y="483"/>
      <point x="254.486" y="421"/>
      <point x="223.308" y="359" type="qcurve" smooth="yes"/>
      <point x="222.883" y="357"/>
      <point x="195.617" y="304"/>
      <point x="154.188" y="222"/>
      <point x="107.845" y="131"/>
      <point x="66.6278" y="50"/>
      <point x="40.7874" y="-1"/>
      <point x="40.7874" y="-1" type="qcurve"/>
      <point x="22.7874" y="-1" type="line"/>
      <point x="22.7874" y="-1"/>
      <point x="43.5022" y="40"/>
      <point x="77.9561" y="108"/>
      <point x="118.598" y="191"/>
      <point x="161.453" y="275"/>
      <point x="197.757" y="347"/>
      <point x="209.646" y="370" type="qcurve" smooth="yes"/>
      <point x="229.148" y="410"/>
      <point x="275.689" y="469"/>
      <point x="332.916" y="503"/>
      <point x="366.128" y="504" type="qcurve"/>
      <point x="359.433" y="576" type="line" smooth="yes"/>
      <point x="357.684" y="596"/>
      <point x="345.461" y="642"/>
      <point x="302.688" y="676"/>
      <point x="255.688" y="676" type="qcurve"/>
      <point x="263.727" y="695" type="line"/>
      <point x="298.727" y="695"/>
      <point x="343.263" y="674"/>
      <point x="367.249" y="641"/>
      <point x="378.384" y="604"/>
      <point x="380.983" y="588" type="qcurve"/>
    </contour>
  </outline>
</glyph>
<glyph name="rho" format="1">
  <advance width="435"/>
  <unicode hex="03C1"/>
  <outline>
    <contour>
      <point x="440.135" y="170" type="line" smooth="yes"/>
      <point x="420.579" y="78"/>
      <point x="308.174" y="-18"/>
      <point x="225.174" y="-18" type="qcurve" smooth="yes"/>
      <point x="195.174" y="-18"/>
      <point x="127.063" y="5"/>
      <point x="76.9902" y="47"/>
      <point x="71.1543" y="76" type="qcurve"/>
      <point x="8.87522" y="-217" type="line"/>
      <point x="-9.84944" y="-211" type="line"/>
      <point x="100.893" y="310" type="line" smooth="yes"/>
      <point x="121.085" y="405"/>
      <point x="239.554" y="506"/>
      <point x="328.554" y="506" type="qcurve" smooth="yes"/>
      <point x="417.554" y="506"/>
      <point x="489.235" y="401"/>
      <point x="469.893" y="310" type="qcurve" smooth="yes"/>
    </contour>
    <contour>
      <point x="450.955" y="315" type="line" smooth="yes"/>
      <point x="469.235" y="401"/>
      <point x="396.302" y="486"/>
      <point x="324.302" y="486" type="qcurve" smooth="yes"/>
      <point x="253.302" y="486"/>
      <point x="141.511" y="407"/>
      <point x="121.955" y="315" type="qcurve" smooth="yes"/>
      <point x="85.183" y="142" type="line" smooth="yes"/>
      <point x="74.9803" y="94"/>
      <point x="120.952" y="28"/>
      <point x="203.15" y="-4"/>
      <point x="247.787" y="-1" type="qcurve" smooth="yes"/>
      <point x="313.638" y="3"/>
      <point x="402.705" y="88"/>
      <point x="418.859" y="164" type="qcurve" smooth="yes"/>
    </contour>
  </outline>
</glyph>
<glyph name="tau" format="1">
  <advance width="342"/>
  <unicode hex="03C4"/>
  <outline>
    <contour>
      <point x="203.057" y="132" type="line" smooth="yes"/>
      <point x="197.318" y="105"/>
      <point x="192.478" y="54"/>
      <point x="214.976" y="14"/>
      <point x="249.85" y="4" type="qcurve"/>
      <point x="239.237" y="-13" type="line"/>
      <point x="190.638" y="3"/>
      <point x="169.454" y="68"/>
      <point x="183.057" y="132" type="qcurve" smooth="yes"/>
      <point x="256.815" y="479" type="line"/>
      <point x="117.815" y="479" type="line"/>
      <point x="121.853" y="498" type="line"/>
      <point x="423.853" y="498" type="line"/>
      <point x="419.815" y="479" type="line"/>
      <point x="276.815" y="479" type="line"/>
    </contour>
  </outline>
</glyph>
<glyph name="upsilon" format="1">
  <advance width="438"/>
  <unicode hex="03C5"/>
    <anchor name="tonos" x="334.843" y="545"/>
    <anchor name="top" x="334.843" y="545"/>
  <outline>
    <contour>
      <point x="442.11" y="184" type="line" smooth="yes"/>
      <point x="424.043" y="99"/>
      <point x="309.874" y="-10"/>
      <point x="217.874" y="-10" type="qcurve" smooth="yes"/>
      <point x="154.874" y="-10"/>
      <point x="82.9274" y="42"/>
      <point x="60.8449" y="131"/>
      <point x="72.1104" y="184" type="qcurve" smooth="yes"/>
      <point x="139.066" y="499" type="line"/>
      <point x="159.066" y="499" type="line"/>
      <point x="92.1104" y="184" type="line" smooth="yes"/>
      <point x="81.6951" y="135"/>
      <point x="102.691" y="55"/>
      <point x="167.7" y="8"/>
      <point x="222.7" y="8" type="qcurve" smooth="yes"/>
      <point x="280.7" y="8"/>
      <point x="362.478" y="54"/>
      <point x="414.483" y="134"/>
      <point x="425.11" y="184" type="qcurve" smooth="yes"/>
      <point x="492.066" y="499" type="line"/>
      <point x="509.066" y="499" type="line"/>
    </contour>
    <contour>
      <point x="334.843" y="545" type="move" name="tonos"/>
    </contour>
    <contour>
      <point x="334.843" y="545" type="move" name="top"/>
    </contour>
  </outline>
</glyph>
<glyph name="quoteright" format="1">
  <advance width="102"/>
  <unicode hex="2019"/>
  <outline>
    <contour>
      <point x="151.621" y="591" type="line"/>
      <point x="168.597" y="605"/>
      <point x="184.973" y="635"/>
      <point x="188.312" y="646" type="qcurve"/>
      <point x="183.737" y="648"/>
      <point x="179.225" y="655"/>
      <point x="180.5" y="661" type="qcurve" smooth="yes"/>
      <point x="182.2" y="669"/>
      <point x="194.326" y="679"/>
      <point x="200.326" y="679" type="qcurve" smooth="yes"/>
      <point x="208.326" y="679"/>
      <point x="215.2" y="669"/>
      <point x="213.5" y="661" type="qcurve" smooth="yes"/>
      <point x="209.249" y="641"/>
      <point x="191.085" y="612"/>
      <point x="172.259" y="594"/>
      <point x="158.346" y="585"/>
      <point x="158.346" y="585" type="qcurve"/>
    </contour>
  </outline>
</glyph>
<glyph name="ellipsis" format="1">
  <advance width="454"/>
  <unicode hex="2026"/>
  <outline>
    <contour>
      <point x="57.3767" y="30" type="qcurve" smooth="yes"/>
      <point x="64.3767" y="30"/>
      <point x="72.2511" y="20"/>
      <point x="70.5506" y="12" type="qcurve" smooth="yes"/>
      <point x="69.0627" y="5"/>
      <point x="57.1497" y="-4"/>
      <point x="50.1497" y="-4" type="qcurve" smooth="yes"/>
      <point x="43.1497" y="-4"/>
      <point x="36.0627" y="5"/>
      <point x="37.5506" y="12" type="qcurve" smooth="yes"/>
      <point x="39.2511" y="20"/>
      <point x="50.3767" y="30"/>
    </contour>
    <contour>
      <point x="231.377" y="30" type="qcurve" smooth="yes"/>
      <point x="239.377" y="30"/>
      <point x="247.251" y="20"/>
      <point x="245.551" y="12" type="qcurve" smooth="yes"/>
      <point x="244.063" y="5"/>
      <point x="232.15" y="-4"/>
      <point x="224.15" y="-4" type="qcurve" smooth="yes"/>
      <point x="217.15" y="-4"/>
      <point x="210.063" y="5"/>
      <point x="211.551" y="12" type="qcurve" smooth="yes"/>
      <point x="213.251" y="20"/>
      <point x="224.377" y="30"/>
    </contour>
    <contour>
      <point x="410.377" y="30" type="qcurve" smooth="yes"/>
      <point x="417.377" y="30"/>
      <point x="425.251" y="20"/>
      <point x="423.551" y="12" type="qcurve" smooth="yes"/>
      <point x="422.063" y="5"/>
      <point x="410.15" y="-4"/>
      <point x="403.15" y="-4" type="qcurve" smooth="yes"/>
      <point x="396.15" y="-4"/>
      <point x="389.063" y="5"/>
      <point x="390.551" y="12" type="qcurve" smooth="yes"/>
      <point x="392.251" y="20"/>
      <point x="403.377" y="30"/>
    </contour>
  </outline>
</glyph>
<glyph name="commaaccent" format="1">
  <advance width="266"/>
  <unicode hex="F6C3"/>
  <outline>
    <contour>
      <point x="73.4958" y="-167" type="line"/>
      <point x="90.4722" y="-153"/>
      <point x="107.638" y="-124"/>
      <point x="110.976" y="-113" type="qcurve"/>
      <point x="106.401" y="-111"/>
      <point x="102.102" y="-103"/>
      <point x="103.378" y="-97" type="qcurve" smooth="yes"/>
      <point x="104.866" y="-90"/>
      <point x="115.992" y="-80"/>
      <point x="122.992" y="-80" type="qcurve" smooth="yes"/>
      <point x="130.992" y="-80"/>
      <point x="138.079" y="-89"/>
      <point x="136.378" y="-97" type="qcurve" smooth="yes"/>
      <point x="132.126" y="-117"/>
      <point x="113.96" y="-146"/>
      <point x="94.921" y="-165"/>
      <point x="81.0076" y="-174"/>
      <point x="81.0076" y="-174" type="qcurve"/>
    </contour>
  </outline>
</glyph>
<glyph name="fl" format="1">
  <advance width="347"/>
  <unicode hex="FB02"/>
  <outline>
    <contour>
      <point x="425.312" y="646" type="line"/>
      <point x="407.563" y="666"/>
      <point x="362.601" y="685"/>
      <point x="336.814" y="686" type="qcurve" smooth="yes"/>
      <point x="302.026" y="687"/>
      <point x="233.65" y="657"/>
      <point x="184.747" y="601"/>
      <point x="178.669" y="563" type="qcurve"/>
      <point x="164.853" y="498" type="line"/>
      <point x="314.853" y="498" type="line"/>
      <point x="304.452" y="482" type="line"/>
      <point x="161.452" y="482" type="line"/>
      <point x="59" y="0" type="line"/>
      <point x="39" y="0" type="line"/>
      <point x="158.032" y="560" type="line" smooth="yes"/>
      <point x="166.746" y="601"/>
      <point x="208.65" y="657"/>
      <point x="261.664" y="690"/>
      <point x="316.64" y="704"/>
      <point x="338.64" y="704" type="qcurve" smooth="yes"/>
      <point x="370.64" y="704"/>
      <point x="421.326" y="679"/>
      <point x="444.437" y="656" type="qcurve"/>
      <point x="305" y="0" type="line"/>
      <point x="288" y="0" type="line"/>
    </contour>
  </outline>
</glyph>
<glyph name="commaturnedabovecomb" format="1">
  <advance width="266"/>
    <anchor name="top" x="292.417" y="750"/>
    <anchor name="_top" x="260.534" y="600"/>
    <anchor name="top.1" x="292.417" y="750"/>
    <anchor name="_top.1" x="260.534" y="600"/>
  <outline>
    <contour>
      <point x="301.355" y="679" type="line"/>
      <point x="284.379" y="665"/>
      <point x="268.001" y="635"/>
      <point x="263.662" y="624" type="qcurve"/>
      <point x="268.237" y="622"/>
      <point x="272.536" y="614"/>
      <point x="271.261" y="608" type="qcurve" smooth="yes"/>
      <point x="269.773" y="601"/>
      <point x="258.859" y="592"/>
      <point x="251.859" y="592" type="qcurve" smooth="yes"/>
      <point x="244.859" y="592"/>
      <point x="236.773" y="601"/>
      <point x="238.261" y="608" type="qcurve" smooth="yes"/>
      <point x="242.513" y="628"/>
      <point x="260.678" y="657"/>
      <point x="279.718" y="676"/>
      <point x="293.631" y="685"/>
      <point x="293.631" y="685" type="qcurve"/>
    </contour>
    <contour>
      <point x="292.417" y="750" type="move" name="top"/>
    </contour>
    <contour>
      <point x="260.534" y="600" type="move" name="_top"/>
    </contour>
    <contour>
      <point x="292.417" y="750" type="move" name="top.1"/>
    </contour>
    <contour>
      <point x="260.534" y="600" type="move" name="_top.1"/>
    </contour>
  </outline>
</glyph>
